<svg xmlns="http://www.w3.org/2000/svg" viewBox="0 0 512 512" width="100%" height="100%">
  <defs>
    <linearGradient id="bgGrad" x1="0%" y1="0%" x2="100%" y2="100%">
      <stop offset="0%" stop-color="#121318" />
      <stop offset="100%" stop-color="#08090b" />
    </linearGradient>
    <linearGradient id="purpleGrad" x1="0%" y1="0%" x2="100%" y2="100%">
      <stop offset="0%" stop-color="#7c66dc" />
      <stop offset="100%" stop-color="#5538ee" />
    </linearGradient>
  </defs>

  <rect x="0" y="0" width="512" height="512" rx="118" ry="118" fill="url(#bgGrad)" />

  <g>
    <!-- White Letter 'P' -->
    <path d="M192 108 H284 C352 108 392 148 392 216 C392 284 352 324 284 324 H236 V376 C236 389 226 400 213 400 H192 C179 400 168 389 168 376 V132 C168 119 179 108 192 108 Z" fill="#FFFFFF" />

    <!-- Upper Inner Loop Cutout -->
    <path d="M228 168 H280 C314 168 334 186 334 216 C334 246 314 264 280 264 H228 Z" fill="#121318" />

    <!-- Purple Play Triangle -->
    <path d="M252 186 C252 181 257 178 261 181 L298 210 C303 213 303 219 298 222 L261 251 C257 254 252 251 252 246 Z" fill="url(#purpleGrad)" />

    <!-- Purple Folded Corner Accent -->
    <path d="M168 348 L210 390 C210 395 206 399 201 399 H178 C172 399 168 395 168 389 Z" fill="url(#purpleGrad)" />
  </g>
</svg>
